<?xml version="1.0" encoding="UTF-8" standalone="no"?>
<!DOCTYPE svg PUBLIC "-//W3C//DTD SVG 1.1//EN"
"http://www.w3.org/Graphics/SVG/1.1/DTD/svg11.dtd">


<!-- Page 1 -->
<svg x="0" y="0" width="473" height="76" viewBox="0 0 473 76" version="1.1" xmlns="http://www.w3.org/2000/svg" xmlns:xlink="http://www.w3.org/1999/xlink"
style="display: block;margin-left: auto;margin-right: auto;">
<defs>

<style type="text/css"><![CDATA[

.g0_1{
fill: #0CABE1;
}
.g1_1{
fill: #FFFFFF;
}


]]></style>

</defs>
<path d="M0,0
L0,76
L473,76
L473,0 Z " 
fill="#FFFFFF" stroke="none" />
<path d="M0,76.4H473.6V0H0V76.4Z" class="g0_1" />
<path d="M121.7,28.1H75.6c-.7,0,-1.3,-.5,-1.4,-1.2c0,-.8,.6,-1.4,1.4,-1.4h46.1c.7,0,1.3,.5,1.3,1.2c.1,.8,-.5,1.4,-1.3,1.4Z" class="g1_1" />
<path d="M91.5,30.6c0,.9,.7,1.5,1.5,1.5c.9,0,1.6,-.6,1.6,-1.5c0,-.8,-.7,-1.5,-1.6,-1.5c-.8,0,-1.5,.7,-1.5,1.5Z" class="g1_1" />
<path d="M96.3,53.3H38.1c-.7,0,-1.3,-.6,-1.3,-1.3c-.1,-.7,.5,-1.4,1.3,-1.4H96.3c.7,0,1.3,.5,1.4,1.2c0,.8,-.6,1.5,-1.4,1.5Z" class="g1_1" />
<path d="M76.7,32.7c-1.3,0,-2.5,.6,-3.5,1.5c0,-.5,-.2,-1.1,-.8,-1.4c-.6,-.3,-1.4,0,-1.7,.6L57.3,60c-.3,.6,0,1.4,.6,1.8c.2,.1,.4,.1,.6,.1c.5,0,1,-.3,1.2,-.7L67.6,45.6c.2,1.3,1.9,1.9,2.9,1.9c2.8,0,5.5,-2,6.7,-4.5L79,39.5l.6,-1.2c.4,-.8,.5,-1.6,.5,-2.3c0,-1.2,-.6,-3.3,-3.4,-3.3m.3,4.7l-2.2,4.5c-.7,1.5,-2.4,2.9,-4,2.9c-1.6,0,-1.1,-1.5,-.8,-2.2l2.2,-4.3c.7,-1.6,2.7,-2.9,4.1,-2.9c1.4,0,1.1,1.3,.7,2Z" class="g1_1" />
<path d="M52.5,33.5c-.4,.7,-4.2,8.4,-4.2,8.4c-.8,1.5,-2.4,2.9,-3.8,2.9c-1.1,0,-.6,-1.7,-.3,-2.3v-.1l3.7,-7.5c.1,-.2,.2,-.5,.3,-.8c.2,-1.2,-1.8,-2.1,-2.6,-.6c-.4,.7,-4.1,8.4,-4.1,8.4c-.8,1.5,-2.7,2.9,-4,2.9c-1.2,0,-.4,-1.7,-.2,-2.3c1.3,-2.5,3.9,-7.9,3.9,-7.9c.4,-.6,.1,-1.4,-.6,-1.8c-.6,-.3,-1.4,0,-1.8,.6c0,0,-3.6,7.4,-4.4,9.1c-.6,1.2,-.6,2.5,0,3.4c.6,1,1.7,1.6,3.1,1.6c1.4,0,2.9,-.7,4.2,-1.8c.4,1,1.3,1.8,3,1.8c2.3,0,4.8,-2,6,-4.5l4,-8.1c.1,-.2,.3,-.5,.3,-.8c.2,-1.2,-1.8,-2.1,-2.5,-.6Z" class="g1_1" />
<path d="M71.9,61.9c-.2,0,-.4,0,-.6,-.1c-.6,-.4,-.9,-1.2,-.6,-1.8L86.1,29.4c.2,-.4,.5,-1,.8,-1.7c1.9,-4.1,5,-11.1,9.8,-11.1c3.4,0,3.4,2.5,3.4,3.1c0,.6,-.1,2.6,-1.5,2.6c-.9,0,-1.1,-.6,-1.1,-1.1c0,-.9,.5,-2.1,-.7,-2.1c-3.1,0,-6.1,6.6,-7.5,9.7c-.3,.7,-.6,1.3,-.8,1.8L73.1,61.2c-.2,.5,-.7,.7,-1.2,.7Z" class="g1_1" />
<path d="M68.2,41.2c-.7,0,-1.4,0,-1.8,.6c-.5,1,-1.7,3,-3.1,3c-.6,0,-.6,-.7,0,-1.8c0,-.1,3.9,-8,3.9,-8c.3,-.6,.1,-1.4,-.6,-1.8c-.6,-.3,-1.5,0,-1.8,.6c0,0,-.1,.2,-.2,.5c-.3,-.9,-1.1,-1.6,-2.5,-1.6c-2.8,0,-5.3,1.9,-6.5,4.4l-1.8,3.5l-.6,1.3c-.4,.7,-.5,1.5,-.5,2.2c0,1.3,.7,3.4,3.5,3.4c1.5,0,2.8,-.9,3.9,-2c.3,1.2,1.1,1.9,2.5,1.9c3.6,0,6.2,-6.2,5.6,-6.2M56.5,44.8c-1.3,0,-1.1,-1.4,-.7,-2.1L58,38.3c.7,-1.6,2.4,-2.9,4,-2.9c1.6,0,1.1,1.5,.8,2.2l-2.2,4.3c-.7,1.5,-2.7,2.9,-4.1,2.9Z" class="g1_1" />
<path d="M20.4,60.1c-2.8,0,-5.4,-1.2,-6.9,-3.3C11.2,53.6,11.6,49,14.6,44.1c2.2,-3.5,4.7,-6,4.8,-6.1c.6,-.6,1.6,-.6,2.2,0c.6,.7,.6,1.6,0,2.2c-.1,.1,-2.4,2.3,-4.4,5.6c-2.3,3.7,-2.7,7,-1.2,9.2c1.3,1.7,3.6,2.4,6.1,1.8c3.9,-.9,6.7,-4.6,7.5,-10C29.9,42.7,28.5,40,27,37.1c-1.4,-2.8,-2.9,-5.7,-2.6,-10c.5,-7.1,4.7,-9.8,6.4,-10.7c2.8,-1.3,5.8,-1.2,8,.3c2,1.4,3,3.7,2.8,6.5c-.3,4.6,-2.9,7.3,-3.1,7.4c-.5,.6,-1.5,.6,-2.1,.1c-.6,-.6,-.7,-1.6,-.1,-2.2c0,0,2,-2.1,2.2,-5.5c.6,-7.4,-10.3,-5.3,-11,4.4c-.3,3.4,.9,5.7,2.3,8.3c1.5,3,3.2,6.3,2.9,11.4c0,.1,-.1,.1,-.1,.1c-1.4,9.9,-7.8,12.2,-9.8,12.6c-.8,.2,-1.6,.3,-2.4,.3Z" class="g1_1" />
<path d="M96.9,47.5c-1.5,0,-2.8,-.5,-3.7,-1.4c-1.8,.8,-3.4,1.3,-4.6,1.3c0,0,-.1,0,-.2,0c-1.7,-.1,-2.5,-.9,-2.8,-1.5C85,45,84.9,43.7,85.5,42.5c1.3,-2.8,4.4,-8.8,4.5,-9.1c.4,-.6,1.2,-.9,1.8,-.6c.7,.4,1,1.2,.6,1.8c0,.1,-2.5,4.9,-3.9,7.9c-.8,1.5,-.8,2.3,.3,2.3c.5,0,2,-.5,3.3,-1.1c-.3,-1.9,.2,-4.2,1.5,-6.3c1.7,-3,4.3,-4.7,6.9,-4.7c1.1,0,2.1,.5,2.6,1.4c.4,.6,.8,1.8,-.1,3.6c-1.3,2.6,-4.2,5.1,-7.1,6.9c.2,.1,.6,.2,1,.2c3.4,0,9.2,-3.4,13.9,-13c.3,-.7,1.1,-1,1.8,-.6c.7,.3,-3.6,8.3,-6.1,11c-3,3.2,-6.6,5.3,-9.6,5.3m.4,-10.6c-.5,.5,-1,1.2,-1.4,1.9c-.7,1.1,-1.1,2.4,-1.2,3.4c1.9,-1.2,3.7,-2.7,5,-4.2c2.1,-2.7,.3,-3.8,-2.4,-1.1Z" class="g1_1" />
<path d="M124.7,40.1c-.2,-.6,-.4,-1.2,-.7,-1.9c-.7,-1.8,-1.5,-3.8,-1.5,-5.6c0,-.7,-.4,-1.2,-1,-1.3c-.6,-.2,-1.2,.1,-1.5,.6c-.1,.1,-3.6,6.8,-7.6,10.5c-2,1.9,-3.3,2.4,-3.8,2.4c-1.6,0,.7,-3.9,1.7,-5.9c3,-6.2,8.1,-16.5,8.2,-16.6c.3,-.7,.1,-1.5,-.6,-1.8c-.7,-.3,-1.5,-.1,-1.8,.6c-.4,.7,-9.2,18.6,-10.5,21.4c-.8,1.7,-.5,5,2.7,5c4.7,0,10.1,-7.9,11.6,-10.2c.3,-.5,.6,-1.4,.6,-1.4c0,0,.1,.8,.3,1.3c.2,.7,.5,1.4,.7,2c.3,.7,.5,1.3,.7,1.8c.3,.9,.5,1.8,.5,2.6c0,3.8,-3.7,3.5,-3.7,1.9c0,-1.6,1.3,-2.2,1.3,-3.2c.1,-.3,-.1,-1.1,-1.1,-1.1c-1.3,0,-2.7,2.1,-2.7,4.3c.1,5.1,8.8,5.3,8.8,-2c0,-1,-.2,-2.2,-.6,-3.4Z" class="g1_1" />
<path d="M136.7,26.8h6.5v1.7h-4.6v1.9h4V32h-4v3.3h-1.9Z" class="g1_1" />
<path d="M147.7,33.9c.2,0,.5,-.1,.7,-.1c.2,-.1,.4,-.3,.5,-.4c.2,-.2,.3,-.4,.3,-.6c.1,-.2,.2,-.4,.2,-.7c0,-.2,-.1,-.5,-.2,-.7c0,-.2,-.2,-.4,-.3,-.6c-.2,-.1,-.3,-.3,-.6,-.4c-.2,-.1,-.4,-.1,-.7,-.1c-.2,0,-.5,0,-.7,.1c-.2,.1,-.3,.3,-.5,.4c-.1,.2,-.2,.4,-.3,.6c-.1,.2,-.1,.4,-.1,.7c0,.2,0,.5,.1,.7c.1,.2,.2,.4,.3,.6c.2,.1,.4,.2,.6,.3c.2,.1,.4,.2,.7,.2m-.1,1.6c-.5,0,-.9,-.1,-1.3,-.3c-.5,-.2,-.8,-.4,-1.2,-.7c-.3,-.3,-.5,-.7,-.7,-1.1c-.2,-.4,-.3,-.8,-.3,-1.3c0,-.5,.1,-.9,.3,-1.3c.2,-.4,.4,-.8,.7,-1.1c.4,-.3,.7,-.5,1.2,-.7c.4,-.2,.9,-.3,1.4,-.3c.5,0,.9,.1,1.4,.3c.4,.1,.8,.4,1.1,.7c.3,.3,.5,.6,.7,1.1c.2,.4,.3,.8,.3,1.3c0,.5,-.1,.9,-.3,1.3c-.2,.4,-.4,.8,-.7,1.1c-.3,.3,-.7,.5,-1.1,.7c-.5,.2,-.9,.3,-1.5,.3Z" class="g1_1" />
<path d="M152.5,28.8h1.9v1.3c.2,-.4,.4,-.8,.7,-1c.4,-.3,.8,-.4,1.3,-.4v1.9h-.1c-.6,0,-1.1,.2,-1.4,.6c-.4,.4,-.5,.9,-.5,1.7v2.4h-1.9Z" class="g1_1" />
<path d="M163.6,34.2c.5,0,.8,-.1,1.1,-.3c.3,-.2,.4,-.5,.4,-.9v-.3c-.2,-.1,-.4,-.1,-.6,-.2c-.1,0,-.4,0,-.6,0c-.4,0,-.7,0,-.9,.2c-.3,.2,-.4,.4,-.4,.7c0,.2,.1,.4,.3,.6c.2,.1,.4,.2,.7,.2m-.5,1.3c-.3,0,-.6,-.1,-.9,-.2c-.3,-.1,-.5,-.2,-.7,-.4c-.2,-.1,-.4,-.3,-.5,-.6c-.1,-.2,-.1,-.5,-.1,-.8v-.1c0,-.3,0,-.6,.1,-.9c.2,-.2,.4,-.5,.6,-.6c.2,-.2,.5,-.3,.8,-.4c.3,-.1,.7,-.1,1.1,-.1c.3,0,.6,0,.8,0c.3,.1,.5,.2,.8,.2v-.1c0,-.4,-.2,-.7,-.4,-.9c-.2,-.2,-.6,-.3,-1,-.3c-.4,0,-.7,.1,-1,.1c-.2,.1,-.5,.2,-.8,.3l-.5,-1.4c.4,-.2,.7,-.3,1.1,-.4c.4,-.1,.9,-.1,1.4,-.1c.5,0,1,0,1.3,.1c.4,.2,.7,.3,.9,.6c.3,.2,.5,.5,.6,.9c.1,.3,.1,.7,.1,1.2v3.7h-1.7v-.7c-.3,.3,-.5,.5,-.9,.6c-.3,.2,-.7,.3,-1.1,.3Z" class="g1_1" />
<path d="M172.4,30.4h-.8V28.9h.8v-.4c0,-.7,.2,-1.3,.5,-1.6c.4,-.3,.8,-.5,1.5,-.5c.3,0,.5,0,.8,0c.2,.1,.3,.1,.5,.2v1.5c-.1,0,-.3,-.1,-.4,-.1c-.1,0,-.3,-.1,-.4,-.1c-.5,0,-.7,.3,-.7,.7v.3h1.5v1.5h-1.5v4.9h-1.8Z" class="g1_1" />
<path d="M176.8,28.8h1.8v6.5h-1.8V28.8Zm-.1,-2.3h2v1.6h-2V26.5Z" class="g1_1" />
<path d="M182.1,32l-2.2,-3.2h2l1.2,1.9l1.2,-1.9h2L184.1,32l2.3,3.3h-2l-1.3,-2l-1.3,2h-2Z" class="g1_1" />
<path d="M191.7,31.6c0,-.4,-.2,-.8,-.4,-1c-.2,-.3,-.5,-.4,-.9,-.4c-.4,0,-.7,.1,-1,.4c-.2,.2,-.4,.6,-.4,1Zm-1.1,3.9c-.5,0,-1,-.1,-1.4,-.3c-.4,-.1,-.8,-.4,-1.1,-.7c-.3,-.3,-.5,-.6,-.7,-1c-.2,-.4,-.2,-.9,-.2,-1.4c0,-.5,0,-.9,.2,-1.3c.2,-.4,.4,-.8,.7,-1.1c.2,-.3,.6,-.5,1,-.7c.4,-.2,.8,-.3,1.3,-.3c.5,0,1,.1,1.4,.3c.4,.2,.7,.5,1,.8c.2,.3,.4,.7,.6,1.1c.1,.4,.1,.9,.1,1.3c0,.1,0,.2,0,.3q0,.1,0,.2H189c.1,.4,.3,.8,.5,1c.3,.2,.7,.3,1.1,.3c.3,0,.6,-.1,.8,-.2c.3,-.1,.5,-.2,.8,-.5l1,1c-.3,.3,-.7,.6,-1.1,.9c-.4,.2,-1,.3,-1.5,.3Z" class="g1_1" />
<path d="M198.1,33.9c.2,0,.4,-.1,.6,-.1c.2,-.1,.3,-.2,.5,-.4c.1,-.2,.2,-.3,.3,-.6c.1,-.2,.1,-.4,.1,-.7c0,-.3,0,-.5,-.1,-.8c-.1,-.2,-.2,-.4,-.3,-.5c-.2,-.2,-.3,-.3,-.5,-.4c-.2,-.1,-.4,-.1,-.6,-.1c-.3,0,-.5,0,-.6,.1c-.2,.1,-.4,.2,-.6,.4c-.1,.1,-.2,.3,-.3,.5c-.1,.2,-.1,.5,-.1,.8c0,.3,0,.5,.1,.7c.1,.3,.2,.4,.3,.6c.2,.2,.4,.3,.6,.4c.1,0,.3,.1,.6,.1m-.5,1.6c-.4,0,-.8,-.1,-1.1,-.3c-.4,-.1,-.7,-.3,-1,-.6c-.2,-.3,-.5,-.6,-.6,-1.1c-.2,-.4,-.3,-.9,-.3,-1.4c0,-.6,.1,-1.1,.3,-1.5c.1,-.4,.4,-.7,.6,-1c.3,-.3,.6,-.5,1,-.7c.3,-.1,.7,-.2,1.1,-.2c.5,0,.9,.1,1.2,.3c.3,.2,.6,.4,.8,.7V26.5h1.9v8.8h-1.9v-.9c-.2,.3,-.5,.6,-.8,.8c-.3,.2,-.7,.3,-1.2,.3Z" class="g1_1" />
<path d="M206.8,28.8h1.8v1c.1,-.2,.2,-.3,.4,-.4c.1,-.2,.2,-.3,.4,-.4c.1,-.1,.3,-.2,.5,-.2c.2,-.1,.4,-.1,.6,-.1c.5,0,.8,.1,1.1,.3c.3,.2,.6,.4,.8,.7c.2,-.3,.6,-.6,.9,-.7c.4,-.2,.7,-.3,1.2,-.3c.7,0,1.2,.2,1.6,.6c.4,.4,.6,1,.6,1.8v4.2h-1.9V31.7c0,-.4,0,-.8,-.2,-1c-.2,-.2,-.5,-.3,-.8,-.3c-.4,0,-.7,.1,-.9,.3c-.2,.2,-.3,.6,-.3,1v3.6h-1.8V31.7c0,-.4,-.1,-.8,-.3,-1c-.2,-.2,-.4,-.3,-.8,-.3c-.3,0,-.6,.1,-.8,.3c-.2,.2,-.3,.6,-.3,1v3.6h-1.8Z" class="g1_1" />
<path d="M221.5,33.9c.3,0,.5,-.1,.7,-.1c.2,-.1,.4,-.3,.6,-.4c.1,-.2,.2,-.4,.3,-.6c.1,-.2,.1,-.4,.1,-.7c0,-.2,0,-.5,-.1,-.7c-.1,-.2,-.2,-.4,-.4,-.6c-.1,-.1,-.3,-.3,-.5,-.4c-.2,-.1,-.5,-.1,-.7,-.1c-.3,0,-.5,0,-.7,.1c-.2,.1,-.4,.3,-.5,.4c-.2,.2,-.3,.4,-.4,.6c-.1,.2,-.1,.4,-.1,.7c0,.2,0,.5,.1,.7c.1,.2,.2,.4,.4,.6c.1,.1,.3,.2,.5,.3c.2,.1,.5,.2,.7,.2m0,1.6c-.5,0,-1,-.1,-1.4,-.3c-.4,-.2,-.8,-.4,-1.1,-.7c-.3,-.3,-.6,-.7,-.8,-1.1c-.1,-.4,-.2,-.8,-.2,-1.3c0,-.5,.1,-.9,.2,-1.3c.2,-.4,.5,-.8,.8,-1.1c.3,-.3,.7,-.5,1.1,-.7c.4,-.2,.9,-.3,1.4,-.3c.5,0,1,.1,1.4,.3c.4,.1,.8,.4,1.1,.7c.3,.3,.6,.6,.8,1.1c.1,.4,.2,.8,.2,1.3c0,.5,-.1,.9,-.2,1.3c-.2,.4,-.5,.8,-.8,1.1c-.3,.3,-.7,.5,-1.1,.7c-.4,.2,-.9,.3,-1.4,.3Z" class="g1_1" />
<path d="M226.4,28.8h1.8v1c.1,-.2,.2,-.3,.4,-.4c.1,-.2,.2,-.3,.4,-.4c.1,-.1,.3,-.2,.5,-.2c.2,-.1,.4,-.1,.6,-.1c.7,0,1.3,.2,1.6,.7c.4,.4,.6,1,.6,1.7v4.2h-1.8V31.7c0,-.4,-.1,-.8,-.3,-1c-.2,-.2,-.5,-.3,-.8,-.3c-.4,0,-.7,.1,-.9,.3c-.2,.2,-.3,.6,-.3,1v3.6h-1.8Z" class="g1_1" />
<path d="M236.1,35.4c-.3,0,-.5,0,-.7,0c-.3,-.1,-.5,-.2,-.6,-.4c-.2,-.1,-.3,-.3,-.4,-.6c-.1,-.2,-.2,-.5,-.2,-.9V30.4h-.7V28.8h.7V27.2h1.9v1.6h1.5v1.6h-1.5v2.8c0,.4,.2,.6,.6,.6c.3,0,.6,0,.9,-.2v1.5c-.2,.1,-.4,.2,-.7,.2c-.2,.1,-.5,.1,-.8,.1Z" class="g1_1" />
<path d="M239,26.5h1.8v3.3c.1,-.2,.2,-.3,.4,-.4c.1,-.2,.2,-.3,.4,-.4c.1,-.1,.3,-.1,.5,-.2c.2,-.1,.4,-.1,.6,-.1c.7,0,1.3,.2,1.7,.6c.3,.5,.5,1.1,.5,1.8v4.2h-1.8V31.7c0,-.4,-.1,-.8,-.3,-1c-.2,-.2,-.5,-.3,-.8,-.3c-.4,0,-.7,.1,-.9,.3c-.2,.2,-.3,.6,-.3,1v3.6H239Z" class="g1_1" />
<path d="M246.6,26.5h1.9v8.8h-1.9V26.5Z" class="g1_1" />
<path d="M251.8,37.3c-.4,0,-.7,0,-.9,-.1c-.3,-.1,-.5,-.2,-.8,-.3l.6,-1.4c.2,.1,.3,.2,.4,.2c.2,.1,.3,.1,.4,.1c.2,0,.3,0,.4,-.1c.1,-.1,.2,-.2,.3,-.3l-2.6,-6.6h2l1.5,4.5l1.4,-4.5h1.9l-2.5,6.7c-.1,.3,-.3,.6,-.4,.8c-.1,.3,-.3,.5,-.4,.6c-.2,.1,-.4,.3,-.6,.3c-.2,.1,-.5,.1,-.7,.1Z" class="g1_1" />
<path d="M261.4,30.4h-.7V28.9h.7v-.4c0,-.7,.2,-1.3,.6,-1.6c.3,-.3,.8,-.5,1.5,-.5c.3,0,.5,0,.7,0c.2,.1,.4,.1,.6,.2v1.5c-.2,0,-.3,-.1,-.4,-.1c-.2,0,-.3,-.1,-.5,-.1c-.4,0,-.6,.3,-.6,.7v.3h1.5v1.5h-1.5v4.9h-1.9Z" class="g1_1" />
<path d="M270,31.6c0,-.4,-.2,-.8,-.4,-1c-.2,-.3,-.5,-.4,-.9,-.4c-.4,0,-.7,.1,-1,.4c-.2,.2,-.4,.6,-.4,1Zm-1.1,3.9c-.5,0,-1,-.1,-1.4,-.3c-.4,-.1,-.8,-.4,-1.1,-.7c-.3,-.3,-.5,-.6,-.7,-1c-.2,-.4,-.2,-.9,-.2,-1.4c0,-.5,0,-.9,.2,-1.3c.2,-.4,.4,-.8,.7,-1.1c.2,-.3,.6,-.5,1,-.7c.4,-.2,.8,-.3,1.3,-.3c.5,0,1,.1,1.4,.3c.4,.2,.7,.5,1,.8c.2,.3,.4,.7,.6,1.1c.1,.4,.1,.9,.1,1.3c0,.1,0,.2,0,.3q0,.1,0,.2h-4.5c.1,.4,.3,.8,.5,1c.3,.2,.7,.3,1.1,.3c.3,0,.6,-.1,.8,-.2c.3,-.1,.5,-.2,.8,-.5l1,1c-.3,.3,-.7,.6,-1.1,.9c-.4,.2,-1,.3,-1.5,.3Z" class="g1_1" />
<path d="M277.5,31.6c-.1,-.4,-.2,-.8,-.4,-1c-.3,-.3,-.6,-.4,-1,-.4c-.4,0,-.7,.1,-.9,.4c-.3,.2,-.4,.6,-.5,1Zm-1.2,3.9c-.5,0,-.9,-.1,-1.4,-.3c-.4,-.1,-.7,-.4,-1,-.7c-.3,-.3,-.6,-.6,-.7,-1c-.2,-.4,-.3,-.9,-.3,-1.4c0,-.5,.1,-.9,.2,-1.3c.2,-.4,.4,-.8,.7,-1.1c.3,-.3,.6,-.5,1,-.7c.4,-.2,.8,-.3,1.3,-.3c.6,0,1,.1,1.4,.3c.4,.2,.8,.5,1,.8c.3,.3,.5,.7,.6,1.1c.1,.4,.2,.9,.2,1.3c0,.1,0,.2,0,.3q0,.1,0,.2h-4.6c.1,.4,.3,.8,.6,1c.3,.2,.6,.3,1,.3c.3,0,.6,-.1,.9,-.2c.2,-.1,.4,-.2,.7,-.5l1.1,1c-.3,.3,-.7,.6,-1.2,.9c-.4,.2,-.9,.3,-1.5,.3Z" class="g1_1" />
<path d="M285.9,37.3c-.4,0,-.7,0,-.9,-.1c-.3,-.1,-.5,-.2,-.8,-.3l.6,-1.4c.2,.1,.3,.2,.4,.2c.2,.1,.3,.1,.4,.1c.2,0,.3,0,.4,-.1c.1,-.1,.2,-.2,.3,-.3l-2.6,-6.6h2l1.5,4.5l1.4,-4.5h1.9L288,35.5c-.1,.3,-.3,.6,-.4,.8c-.1,.3,-.3,.5,-.4,.6c-.2,.1,-.4,.3,-.6,.3c-.2,.1,-.5,.1,-.7,.1Z" class="g1_1" />
<path d="M294.8,33.9c.3,0,.5,-.1,.7,-.1c.2,-.1,.4,-.3,.6,-.4c.1,-.2,.2,-.4,.3,-.6c.1,-.2,.1,-.4,.1,-.7c0,-.2,0,-.5,-.1,-.7c-.1,-.2,-.2,-.4,-.4,-.6c-.1,-.1,-.3,-.3,-.5,-.4c-.2,-.1,-.5,-.1,-.7,-.1c-.3,0,-.5,0,-.7,.1c-.2,.1,-.4,.3,-.6,.4c-.1,.2,-.2,.4,-.3,.6c-.1,.2,-.1,.4,-.1,.7c0,.2,0,.5,.1,.7c.1,.2,.2,.4,.4,.6c.1,.1,.3,.2,.5,.3c.2,.1,.5,.2,.7,.2m0,1.6c-.5,0,-1,-.1,-1.4,-.3c-.4,-.2,-.8,-.4,-1.1,-.7c-.3,-.3,-.6,-.7,-.8,-1.1c-.1,-.4,-.2,-.8,-.2,-1.3c0,-.5,.1,-.9,.2,-1.3c.2,-.4,.5,-.8,.8,-1.1c.3,-.3,.7,-.5,1.1,-.7c.4,-.2,.9,-.3,1.4,-.3c.5,0,1,.1,1.4,.3c.4,.1,.8,.4,1.1,.7c.3,.3,.6,.6,.8,1.1c.1,.4,.2,.8,.2,1.3c0,.5,-.1,.9,-.2,1.3c-.2,.4,-.5,.8,-.8,1.1c-.3,.3,-.7,.5,-1.1,.7c-.4,.2,-.9,.3,-1.4,.3Z" class="g1_1" />
<path d="M301.8,35.5c-.7,0,-1.2,-.3,-1.6,-.7c-.4,-.4,-.6,-1,-.6,-1.8V28.8h1.9v3.7c0,.4,.1,.7,.2,.9c.2,.3,.5,.4,.9,.4c.3,0,.6,-.1,.8,-.4c.2,-.2,.3,-.5,.3,-.9V28.8h1.9v6.5h-1.9v-.9c-.1,.1,-.2,.3,-.3,.4c-.1,.1,-.3,.2,-.4,.3c-.2,.1,-.4,.2,-.5,.3c-.2,0,-.4,.1,-.7,.1Z" class="g1_1" />
<path d="M314,33.3c.2,0,.4,-.1,.6,-.1c.2,-.1,.4,-.2,.5,-.3c.2,-.2,.3,-.3,.4,-.5c.1,-.2,.1,-.4,.1,-.6v-.1c0,-.2,0,-.4,-.1,-.6c-.1,-.2,-.2,-.3,-.4,-.4c-.1,-.2,-.3,-.3,-.5,-.4c-.2,0,-.4,-.1,-.6,-.1c-.2,0,-.4,.1,-.6,.1c-.2,.1,-.4,.2,-.5,.4c-.2,.1,-.3,.2,-.4,.4c0,.2,-.1,.4,-.1,.6v.1c0,.4,.2,.8,.5,1.1c.3,.2,.6,.4,1.1,.4m-.2,4c-.6,0,-1.1,-.1,-1.5,-.2c-.5,-.1,-1,-.3,-1.4,-.5l.6,-1.4c.4,.2,.7,.4,1.1,.5c.3,.1,.7,.1,1.1,.1c.7,0,1.1,-.1,1.4,-.4c.3,-.3,.5,-.8,.5,-1.3v-.4c-.3,.4,-.6,.6,-.9,.8c-.3,.2,-.7,.3,-1.2,.3c-.4,0,-.8,-.1,-1.1,-.2c-.4,-.1,-.7,-.3,-.9,-.6c-.3,-.2,-.5,-.6,-.7,-.9c-.1,-.4,-.2,-.8,-.2,-1.3v-.1c0,-.4,.1,-.9,.2,-1.3c.2,-.3,.4,-.6,.7,-.9c.2,-.3,.5,-.5,.9,-.6c.3,-.1,.7,-.2,1.1,-.2c.5,0,.9,.1,1.2,.3c.3,.2,.6,.4,.9,.7v-.9h1.8v5.1c0,1.1,-.3,2,-.8,2.5c-.3,.3,-.7,.6,-1.2,.7c-.4,.1,-1,.2,-1.6,.2Z" class="g1_1" />
<path d="M323.3,31.6c0,-.4,-.2,-.8,-.4,-1c-.2,-.3,-.5,-.4,-.9,-.4c-.4,0,-.7,.1,-1,.4c-.2,.2,-.4,.6,-.4,1Zm-1.1,3.9c-.5,0,-1,-.1,-1.4,-.3c-.4,-.1,-.8,-.4,-1.1,-.7c-.3,-.3,-.5,-.6,-.7,-1c-.2,-.4,-.3,-.9,-.3,-1.4c0,-.5,.1,-.9,.3,-1.3c.1,-.4,.4,-.8,.6,-1.1c.3,-.3,.7,-.5,1.1,-.7c.4,-.2,.8,-.3,1.3,-.3c.5,0,1,.1,1.4,.3c.4,.2,.7,.5,1,.8c.2,.3,.4,.7,.6,1.1c.1,.4,.1,.9,.1,1.3c0,.1,0,.2,0,.3q0,.1,0,.2h-4.5c.1,.4,.3,.8,.5,1c.3,.2,.7,.3,1.1,.3c.3,0,.6,-.1,.8,-.2c.2,-.1,.5,-.2,.8,-.5l1,1c-.3,.3,-.7,.6,-1.1,.9c-.4,.2,-1,.3,-1.5,.3Z" class="g1_1" />
<path d="M328.7,35.4c-.3,0,-.5,0,-.8,0c-.2,-.1,-.4,-.2,-.6,-.4c-.1,-.1,-.3,-.3,-.3,-.6c-.1,-.2,-.2,-.5,-.2,-.9V30.4H326V28.8h.8V27.2h1.9v1.6h1.5v1.6h-1.5v2.8c0,.4,.2,.6,.6,.6c.3,0,.6,0,.9,-.2v1.5c-.2,.1,-.4,.2,-.7,.2c-.2,.1,-.5,.1,-.8,.1Z" class="g1_1" />
<path d="M337.6,34.2c.4,0,.8,-.1,1,-.3c.3,-.2,.4,-.5,.4,-.9v-.3c-.1,-.1,-.3,-.1,-.5,-.2c-.2,0,-.4,0,-.6,0c-.4,0,-.7,0,-1,.2c-.2,.2,-.3,.4,-.3,.7c0,.2,.1,.4,.3,.6c.2,.1,.4,.2,.7,.2m-.6,1.3c-.3,0,-.6,-.1,-.8,-.2c-.3,-.1,-.5,-.2,-.7,-.4c-.2,-.1,-.4,-.3,-.5,-.6c-.1,-.2,-.2,-.5,-.2,-.8v-.1c0,-.3,.1,-.6,.2,-.9c.1,-.2,.3,-.5,.5,-.6c.3,-.2,.5,-.3,.9,-.4c.3,-.1,.6,-.1,1,-.1c.4,0,.6,0,.9,0c.2,.1,.5,.2,.7,.2v-.1c0,-.4,-.1,-.7,-.3,-.9c-.3,-.2,-.6,-.3,-1.1,-.3c-.3,0,-.6,.1,-.9,.1c-.3,.1,-.6,.2,-.9,.3l-.4,-1.4c.3,-.2,.7,-.3,1.1,-.4c.4,-.1,.8,-.1,1.4,-.1c.5,0,.9,0,1.3,.1c.4,.2,.7,.3,.9,.6c.2,.2,.4,.5,.5,.9c.1,.3,.2,.7,.2,1.2v3.7H339v-.7c-.2,.3,-.5,.5,-.8,.6c-.3,.2,-.7,.3,-1.2,.3Z" class="g1_1" />
<path d="M349.3,35.5c-.7,0,-1.3,-.2,-1.9,-.4c-.7,-.2,-1.2,-.5,-1.7,-1l1.1,-1.3c.3,.3,.7,.5,1.2,.7c.4,.2,.8,.3,1.3,.3c.4,0,.7,-.1,.9,-.2c.2,-.1,.3,-.3,.3,-.6c0,-.1,0,-.2,0,-.3c-.1,-.1,-.2,-.2,-.3,-.3c-.1,-.1,-.3,-.2,-.5,-.2c-.2,-.1,-.5,-.2,-.9,-.3c-.4,-.1,-.8,-.2,-1.2,-.4c-.3,-.1,-.6,-.2,-.9,-.4c-.2,-.2,-.4,-.5,-.5,-.7c-.2,-.3,-.2,-.7,-.2,-1.1c0,-.4,.1,-.8,.2,-1.1c.1,-.3,.3,-.6,.6,-.8c.3,-.2,.6,-.4,.9,-.5c.4,-.1,.8,-.2,1.2,-.2c.7,0,1.2,.1,1.8,.3c.5,.2,1,.4,1.4,.8l-1,1.4c-.4,-.3,-.7,-.5,-1.1,-.6c-.4,-.2,-.7,-.2,-1.1,-.2c-.3,0,-.6,0,-.8,.2c-.2,.1,-.3,.3,-.3,.5c0,.2,.1,.3,.1,.4c.1,.1,.2,.2,.3,.3c.1,0,.3,.1,.6,.2c.2,.1,.5,.2,.9,.2c.4,.2,.8,.3,1.1,.4c.4,.2,.6,.3,.9,.5c.2,.2,.4,.5,.5,.7c.1,.3,.2,.6,.2,1c0,.4,-.1,.8,-.3,1.1c-.1,.4,-.3,.6,-.6,.9c-.3,.2,-.6,.4,-1,.5c-.4,.1,-.8,.2,-1.2,.2Z" class="g1_1" />
<path d="M353.3,28.8h1.8l1.1,4l1.2,-4H359l1.2,4l1.1,-4h1.8l-2,6.6h-1.7l-1.2,-4l-1.3,4h-1.6Z" class="g1_1" />
<path d="M366.7,34.2c.4,0,.8,-.1,1,-.3c.3,-.2,.4,-.5,.4,-.9v-.3c-.2,-.1,-.3,-.1,-.5,-.2c-.2,0,-.4,0,-.7,0c-.4,0,-.7,0,-.9,.2c-.2,.2,-.3,.4,-.3,.7c0,.2,0,.4,.2,.6c.2,.1,.5,.2,.8,.2m-.6,1.3c-.3,0,-.6,-.1,-.9,-.2c-.2,-.1,-.5,-.2,-.7,-.4c-.2,-.1,-.3,-.3,-.5,-.6c-.1,-.2,-.1,-.5,-.1,-.8v-.1c0,-.3,0,-.6,.2,-.9c.1,-.2,.3,-.5,.5,-.6c.2,-.2,.5,-.3,.8,-.4c.3,-.1,.7,-.1,1.1,-.1c.3,0,.6,0,.9,0c.2,.1,.4,.2,.7,.2v-.1c0,-.4,-.1,-.7,-.4,-.9c-.2,-.2,-.6,-.3,-1,-.3c-.4,0,-.7,.1,-1,.1c-.2,.1,-.5,.2,-.8,.3l-.5,-1.4c.4,-.2,.8,-.3,1.1,-.4c.4,-.1,.9,-.1,1.5,-.1c.5,0,.9,0,1.3,.1c.3,.2,.6,.3,.9,.6c.2,.2,.4,.5,.5,.9c.1,.3,.2,.7,.2,1.2v3.7h-1.8v-.7c-.3,.3,-.5,.5,-.8,.6c-.4,.2,-.7,.3,-1.2,.3Z" class="g1_1" />
<path d="M374.8,33.9c.3,0,.5,-.1,.7,-.1c.2,-.1,.3,-.2,.5,-.4c.1,-.2,.2,-.3,.3,-.6c.1,-.2,.1,-.4,.1,-.7c0,-.3,0,-.5,-.1,-.8c-.1,-.2,-.2,-.4,-.3,-.5c-.2,-.2,-.3,-.3,-.5,-.4c-.2,-.1,-.4,-.1,-.7,-.1c-.2,0,-.4,0,-.6,.1c-.2,.1,-.3,.2,-.5,.4c-.1,.1,-.2,.3,-.3,.5c-.1,.3,-.1,.5,-.1,.8c0,.3,0,.5,.1,.7c.1,.3,.2,.4,.3,.6c.2,.2,.3,.3,.5,.4c.2,0,.4,.1,.6,.1m-3.4,-5.1h1.9v1c.2,-.3,.5,-.6,.8,-.8c.3,-.2,.7,-.3,1.2,-.3c.4,0,.8,.1,1.1,.2c.4,.2,.7,.4,1,.7c.2,.3,.5,.6,.6,1c.2,.4,.3,.9,.3,1.5c0,.5,-.1,1,-.3,1.4c-.1,.5,-.3,.8,-.6,1.1c-.3,.3,-.6,.5,-1,.6c-.3,.2,-.7,.3,-1.1,.3c-.5,0,-.9,-.1,-1.2,-.3c-.3,-.2,-.6,-.5,-.8,-.7v2.8h-1.9Z" class="g1_1" />
<path d="M380,30.4h-.8V28.9h.8v-.4c0,-.7,.1,-1.3,.5,-1.6c.3,-.3,.8,-.5,1.5,-.5c.3,0,.5,0,.7,0c.2,.1,.4,.1,.6,.2v1.5c-.1,0,-.3,-.1,-.4,-.1c-.1,0,-.3,-.1,-.4,-.1c-.5,0,-.7,.3,-.7,.7v.3h1.5v1.5h-1.5v4.9H380Z" class="g1_1" />
<path d="M384.4,28.8h1.8v6.5h-1.8V28.8Zm-.1,-2.3h2v1.6h-2V26.5Z" class="g1_1" />
<path d="M392.2,31.6c0,-.4,-.2,-.8,-.4,-1c-.2,-.3,-.6,-.4,-.9,-.4c-.4,0,-.7,.1,-1,.4c-.2,.2,-.4,.6,-.5,1ZM391,35.5c-.4,0,-.9,-.1,-1.3,-.3c-.4,-.1,-.8,-.4,-1.1,-.7c-.3,-.3,-.5,-.6,-.7,-1c-.2,-.4,-.3,-.9,-.3,-1.4c0,-.5,.1,-.9,.3,-1.3c.1,-.4,.4,-.8,.6,-1.1c.3,-.3,.7,-.5,1,-.7c.4,-.2,.9,-.3,1.4,-.3c.5,0,1,.1,1.4,.3c.4,.2,.7,.5,1,.8c.2,.3,.4,.7,.5,1.1c.2,.4,.2,.9,.2,1.3c0,.1,0,.2,0,.3q0,.1,0,.2h-4.5c.1,.4,.2,.8,.5,1c.3,.2,.6,.3,1.1,.3c.3,0,.5,-.1,.8,-.2c.2,-.1,.5,-.2,.7,-.5l1.1,1c-.3,.3,-.7,.6,-1.1,.9c-.5,.2,-1,.3,-1.6,.3Z" class="g1_1" />
<path d="M397.6,35.4c-.3,0,-.5,0,-.8,0c-.2,-.1,-.4,-.2,-.6,-.4c-.1,-.1,-.3,-.3,-.4,-.6c-.1,-.2,-.1,-.5,-.1,-.9V30.4h-.8V28.8h.8V27.2h1.8v1.6h1.6v1.6h-1.6v2.8c0,.4,.2,.6,.6,.6c.4,0,.7,0,1,-.2v1.5c-.2,.1,-.5,.2,-.7,.2c-.2,.1,-.5,.1,-.8,.1Z" class="g1_1" />
<path d="M402.7,35.5c-.4,0,-.9,-.1,-1.4,-.3c-.5,-.1,-.9,-.4,-1.4,-.7l.8,-1.2c.4,.2,.7,.4,1.1,.5c.3,.2,.7,.2,1,.2c.2,0,.4,0,.6,-.1c.1,-.1,.1,-.2,.1,-.3v-.1c0,-.1,0,-.2,-.1,-.2c0,-.1,-.1,-.2,-.3,-.2c-.1,-.1,-.2,-.1,-.4,-.2c-.2,0,-.3,-.1,-.5,-.1c-.2,-.1,-.5,-.2,-.7,-.3c-.2,-.1,-.4,-.2,-.6,-.3c-.2,-.2,-.4,-.4,-.5,-.6c-.1,-.2,-.1,-.5,-.1,-.8c0,-.3,0,-.6,.1,-.9c.2,-.2,.3,-.5,.6,-.6c.2,-.2,.4,-.3,.7,-.4c.3,-.1,.6,-.2,.9,-.2c.4,0,.9,.1,1.3,.2c.4,.2,.8,.3,1.2,.6l-.7,1.3c-.4,-.2,-.7,-.4,-1,-.5c-.3,-.1,-.6,-.1,-.8,-.1c-.2,0,-.4,0,-.5,.1c-.1,.1,-.2,.2,-.2,.3c0,.1,.1,.2,.1,.3c.1,0,.2,.1,.3,.2c.1,0,.3,.1,.4,.1c.2,.1,.4,.1,.5,.2c.3,.1,.5,.2,.7,.3c.3,.1,.5,.2,.7,.3c.2,.2,.3,.4,.4,.6c.2,.2,.2,.4,.2,.7v.1c0,.3,-.1,.6,-.2,.9c-.1,.3,-.3,.5,-.5,.6c-.2,.2,-.5,.3,-.8,.4c-.3,.1,-.6,.2,-1,.2Z" class="g1_1" />
<path d="M413.6,33.9c.2,0,.4,-.1,.6,-.1c.2,-.1,.4,-.2,.5,-.4c.1,-.2,.3,-.3,.3,-.6c.1,-.2,.2,-.4,.2,-.7c0,-.3,-.1,-.5,-.2,-.8c0,-.2,-.2,-.4,-.3,-.5c-.1,-.2,-.3,-.3,-.5,-.4c-.2,-.1,-.4,-.1,-.6,-.1c-.2,0,-.4,0,-.6,.1c-.2,.1,-.4,.2,-.5,.4c-.2,.1,-.3,.3,-.4,.5c-.1,.3,-.1,.5,-.1,.8c0,.3,0,.5,.1,.7c.1,.3,.2,.4,.4,.6c.1,.2,.3,.3,.5,.4c.2,0,.4,.1,.6,.1m.5,1.6c-.5,0,-.9,-.1,-1.3,-.3c-.3,-.2,-.6,-.5,-.8,-.7v.8h-1.8V26.5H412v3.3c.3,-.3,.5,-.6,.8,-.8c.4,-.2,.8,-.3,1.3,-.3c.3,0,.7,.1,1.1,.2c.3,.2,.6,.4,.9,.7c.3,.3,.5,.6,.7,1c.1,.4,.2,.9,.2,1.5c0,.5,-.1,1,-.2,1.4c-.2,.5,-.4,.8,-.7,1.1c-.3,.3,-.6,.5,-.9,.6c-.4,.2,-.8,.3,-1.1,.3Z" class="g1_1" />
<path d="M418.5,28.8h1.8v6.5h-1.8V28.8Zm-.1,-2.3h2v1.6h-2V26.5Z" class="g1_1" />
<path d="M425.1,35.5c-.5,0,-.9,-.1,-1.3,-.3c-.5,-.2,-.8,-.4,-1.1,-.7c-.3,-.3,-.5,-.7,-.7,-1.1c-.2,-.4,-.3,-.8,-.3,-1.3c0,-.5,.1,-.9,.3,-1.3c.2,-.4,.4,-.8,.7,-1.1c.3,-.3,.6,-.5,1.1,-.7c.4,-.2,.8,-.3,1.3,-.3c.7,0,1.2,.1,1.6,.3c.4,.2,.7,.5,1,.8L426.6,31c-.2,-.2,-.4,-.4,-.6,-.5c-.3,-.1,-.5,-.2,-.9,-.2c-.2,0,-.4,0,-.6,.1c-.2,.1,-.4,.3,-.5,.4c-.1,.2,-.3,.4,-.3,.6c-.1,.2,-.1,.4,-.1,.7c0,.2,0,.5,.1,.7c0,.2,.2,.4,.3,.6c.1,.1,.3,.3,.5,.4c.2,0,.5,.1,.7,.1c.3,0,.6,-.1,.8,-.2c.2,-.1,.5,-.3,.7,-.5l1.1,1.1c-.3,.3,-.7,.6,-1.1,.8c-.4,.3,-.9,.4,-1.6,.4Z" class="g1_1" />
<path d="M430.5,37.3c-.3,0,-.6,0,-.9,-.1c-.2,-.1,-.5,-.2,-.7,-.3l.6,-1.4c.1,.1,.3,.2,.4,.2c.1,.1,.3,.1,.4,.1c.2,0,.3,0,.4,-.1c.1,-.1,.2,-.2,.2,-.3l-2.5,-6.6h2l1.4,4.5l1.5,-4.5h1.9l-2.5,6.7c-.2,.3,-.3,.6,-.4,.8c-.2,.3,-.3,.5,-.5,.6c-.1,.1,-.3,.3,-.5,.3c-.2,.1,-.5,.1,-.8,.1Z" class="g1_1" />
<path d="M439.3,35.5c-.4,0,-.9,-.1,-1.3,-.3c-.4,-.2,-.8,-.4,-1.1,-.7c-.3,-.3,-.5,-.7,-.7,-1.1c-.2,-.4,-.3,-.8,-.3,-1.3c0,-.5,.1,-.9,.3,-1.3c.2,-.4,.4,-.8,.7,-1.1c.3,-.3,.7,-.5,1.1,-.7c.4,-.2,.9,-.3,1.4,-.3c.6,0,1.1,.1,1.5,.3c.4,.2,.8,.5,1.1,.8L440.8,31c-.2,-.2,-.4,-.4,-.6,-.5c-.2,-.1,-.5,-.2,-.8,-.2c-.3,0,-.5,0,-.7,.1c-.2,.1,-.3,.3,-.5,.4c-.1,.2,-.2,.4,-.3,.6c-.1,.2,-.1,.4,-.1,.7c0,.2,0,.5,.1,.7c.1,.2,.2,.4,.3,.6c.2,.1,.3,.3,.5,.4c.2,0,.5,.1,.7,.1c.3,0,.6,-.1,.8,-.2c.3,-.1,.5,-.3,.7,-.5l1.1,1.1c-.3,.3,-.7,.6,-1.1,.8c-.4,.3,-.9,.4,-1.6,.4Z" class="g1_1" />
<path d="M443.3,26.5h1.8v8.8h-1.8V26.5Z" class="g1_1" />
<path d="M451.1,31.6c0,-.4,-.2,-.8,-.4,-1c-.2,-.3,-.5,-.4,-.9,-.4c-.4,0,-.7,.1,-1,.4c-.2,.2,-.4,.6,-.4,1ZM450,35.5c-.5,0,-1,-.1,-1.4,-.3c-.4,-.1,-.8,-.4,-1.1,-.7c-.3,-.3,-.5,-.6,-.7,-1c-.2,-.4,-.2,-.9,-.2,-1.4c0,-.5,0,-.9,.2,-1.3c.1,-.4,.4,-.8,.7,-1.1c.2,-.3,.6,-.5,1,-.7c.4,-.2,.8,-.3,1.3,-.3c.5,0,1,.1,1.4,.3c.4,.2,.7,.5,1,.8c.2,.3,.4,.7,.6,1.1c.1,.4,.1,.9,.1,1.3c0,.1,0,.2,0,.3q0,.1,0,.2h-4.5c.1,.4,.3,.8,.5,1c.3,.2,.7,.3,1.1,.3c.3,0,.6,-.1,.8,-.2c.2,-.1,.5,-.2,.8,-.5l1,1c-.3,.3,-.7,.6,-1.1,.9c-.4,.2,-1,.3,-1.5,.3Z" class="g1_1" />
<path d="M454.2,33.4h2v1.9h-2V33.4Z" class="g1_1" />
<path d="M136.2,41.1h1l2.3,6.7l2.2,-6.7h.7l2.2,6.7l2.3,-6.7h1L145,49.2h-.8L142,42.7l-2.2,6.5h-.7Z" class="g1_1" />
<path d="M153,45.8c-.1,-1,-.7,-2,-1.9,-2c-1,0,-1.8,.9,-1.9,2Zm-4.7,.4v0c0,-1.8,1.2,-3.1,2.8,-3.1c1.8,0,2.8,1.4,2.8,3.1c0,.1,0,.2,0,.3h-4.7c.1,1.3,1,2,2.1,2c.8,0,1.4,-.3,1.8,-.8l.6,.5c-.6,.6,-1.3,1.1,-2.5,1.1c-1.6,0,-2.9,-1.3,-2.9,-3.1Z" class="g1_1" />
<path d="M158.9,43.2h.9v1c.4,-.6,.9,-1.1,1.9,-1.1c1,0,1.6,.5,1.9,1.2c.4,-.7,1.1,-1.2,2.1,-1.2c1.4,0,2.2,.9,2.2,2.4v3.6H167V45.7c0,-1.2,-.5,-1.8,-1.5,-1.8c-.9,0,-1.6,.6,-1.6,1.8v3.4H163V45.6c0,-1.1,-.6,-1.7,-1.6,-1.7c-.9,0,-1.6,.8,-1.6,1.9v3.3h-.9Z" class="g1_1" />
<path d="M173.8,47v-.6c-.5,-.1,-1,-.3,-1.8,-.3c-1.1,0,-1.7,.5,-1.7,1.3c0,.7,.7,1.2,1.5,1.2c1.1,0,2,-.7,2,-1.6m-4.4,.4v0c0,-1.3,1,-1.9,2.5,-1.9c.8,0,1.3,.1,1.9,.2v-.2c0,-1.1,-.7,-1.6,-1.8,-1.6c-.7,0,-1.3,.2,-1.8,.4l-.3,-.7c.7,-.3,1.3,-.5,2.2,-.5c.8,0,1.5,.2,1.9,.7c.4,.4,.6,.9,.6,1.7v3.6h-.8v-.9c-.4,.6,-1.1,1.1,-2.2,1.1c-1.1,0,-2.2,-.7,-2.2,-1.9Z" class="g1_1" />
<path d="M176.5,40.7h.9v5.8l3.2,-3.3h1.1l-2.5,2.5l2.6,3.4h-1.1l-2.1,-2.7l-1.2,1.2v1.5h-.9Z" class="g1_1" />
<path d="M187.1,45.8c-.1,-1,-.7,-2,-1.9,-2c-1,0,-1.8,.9,-1.9,2Zm-4.7,.4v0c0,-1.8,1.2,-3.1,2.9,-3.1c1.7,0,2.7,1.4,2.7,3.1c0,.1,0,.2,0,.3h-4.7c.1,1.3,1,2,2.1,2c.8,0,1.4,-.3,1.9,-.8l.5,.5c-.6,.6,-1.3,1.1,-2.4,1.1c-1.7,0,-3,-1.3,-3,-3.1Z" class="g1_1" />
<path d="M192.5,48.4l.5,-.6c.6,.4,1.3,.7,2,.7c.8,0,1.3,-.4,1.3,-.9v-.1c0,-.6,-.7,-.8,-1.5,-1c-.9,-.3,-2,-.6,-2,-1.7c0,-1,.9,-1.7,2,-1.7c.8,0,1.6,.2,2.2,.6l-.4,.7c-.6,-.3,-1.2,-.6,-1.8,-.6c-.7,0,-1.1,.4,-1.1,.9c0,.6,.7,.8,1.5,1c.9,.3,1.9,.7,1.9,1.8c0,1.1,-.9,1.8,-2.1,1.8c-.9,0,-1.8,-.4,-2.5,-.9Z" class="g1_1" />
<path d="M198.7,46.9V43.2h.9v3.5c0,1.1,.6,1.8,1.6,1.8c1,0,1.8,-.8,1.8,-1.9V43.2h.9v5.9H203v-1c-.4,.7,-1,1.2,-2.1,1.2c-1.4,0,-2.2,-1,-2.2,-2.4Z" class="g1_1" />
<path d="M205.8,43.2h.9v1.5c.5,-.9,1.3,-1.7,2.5,-1.6V44h-.1c-1.3,0,-2.4,1,-2.4,2.8v2.3h-.9Z" class="g1_1" />
<path d="M214.6,45.8c-.1,-1,-.7,-2,-1.9,-2c-1,0,-1.8,.9,-1.9,2Zm-4.7,.4v0c0,-1.8,1.2,-3.1,2.8,-3.1c1.8,0,2.8,1.4,2.8,3.1c0,.1,0,.2,0,.3h-4.7c.1,1.3,1,2,2.1,2c.8,0,1.4,-.3,1.9,-.8l.5,.5c-.6,.6,-1.3,1.1,-2.4,1.1c-1.7,0,-3,-1.3,-3,-3.1Z" class="g1_1" />
<path d="M225,43.2h.9l-2.5,6.1c-.5,1.3,-1.1,1.7,-2,1.7c-.5,0,-.8,-.1,-1.2,-.3l.3,-.7c.3,.2,.5,.2,.9,.2c.5,0,.9,-.2,1.2,-1.1l-2.7,-5.9h1l2.2,5Z" class="g1_1" />
<path d="M231.9,46.2v0c0,-1.3,-1,-2.4,-2.2,-2.4c-1.3,0,-2.2,1.1,-2.2,2.4c0,1.3,1,2.3,2.2,2.3c1.3,0,2.2,-1,2.2,-2.3m-5.3,0v0c0,-1.7,1.3,-3.1,3.1,-3.1c1.8,0,3.1,1.4,3.1,3.1c0,1.7,-1.3,3.1,-3.1,3.1c-1.8,0,-3.1,-1.4,-3.1,-3.1Z" class="g1_1" />
<path d="M234.3,46.9V43.2h.9v3.5c0,1.1,.6,1.8,1.6,1.8c1.1,0,1.8,-.8,1.8,-1.9V43.2h.9v5.9h-.9v-1c-.4,.7,-1,1.2,-2,1.2c-1.4,0,-2.3,-1,-2.3,-2.4Z" class="g1_1" />
<path d="M241.5,43.2h.9v1.5c.4,-.9,1.3,-1.7,2.4,-1.6V44h-.1c-1.3,0,-2.3,1,-2.3,2.8v2.3h-.9Z" class="g1_1" />
<path d="M249.2,48l.6,-.7c.8,.8,1.6,1.1,2.8,1.1c1,0,1.7,-.5,1.7,-1.3V47c0,-.7,-.4,-1.1,-2,-1.5c-1.9,-.4,-2.8,-1,-2.8,-2.3c0,-1.3,1.2,-2.2,2.7,-2.2c1.2,0,2,.3,2.8,1l-.5,.7c-.8,-.6,-1.5,-.9,-2.3,-.9c-1.1,0,-1.7,.6,-1.7,1.3c0,.8,.4,1.2,2.1,1.6c1.8,.4,2.7,1,2.7,2.3c0,1.4,-1.2,2.3,-2.8,2.3c-1.3,0,-2.3,-.5,-3.3,-1.3Z" class="g1_1" />
<path d="M256.3,43.2h1l1.6,4.8l1.6,-4.8h.7l1.6,4.8l1.6,-4.8h.9l-2.1,6h-.8l-1.6,-4.7l-1.6,4.7h-.8Z" class="g1_1" />
<path d="M270.5,47v-.6c-.5,-.1,-1.1,-.3,-1.8,-.3c-1.1,0,-1.7,.5,-1.7,1.3c0,.7,.7,1.2,1.5,1.2c1.1,0,2,-.7,2,-1.6m-4.4,.4v0c0,-1.3,1,-1.9,2.5,-1.9c.8,0,1.3,.1,1.9,.2v-.2c0,-1.1,-.7,-1.6,-1.8,-1.6c-.7,0,-1.3,.2,-1.8,.4l-.3,-.7c.7,-.3,1.3,-.5,2.2,-.5c.8,0,1.5,.2,1.9,.7c.4,.4,.6,.9,.6,1.7v3.6h-.8v-.9c-.5,.6,-1.1,1.1,-2.2,1.1c-1.1,0,-2.2,-.7,-2.2,-1.9Z" class="g1_1" />
<path d="M278.3,46.2v0c0,-1.4,-1,-2.3,-2.1,-2.3c-1.1,0,-2.2,.9,-2.2,2.3c0,1.4,1.1,2.3,2.2,2.3c1.1,0,2.1,-.9,2.1,-2.3m-5.1,-3h.9v1.2c.5,-.7,1.2,-1.3,2.3,-1.3c1.4,0,2.8,1.1,2.8,3.1c0,1.9,-1.4,3.1,-2.8,3.1c-1.1,0,-1.9,-.6,-2.3,-1.3v3h-.9Z" class="g1_1" />
<path d="M281.2,44h-.9v-.8h.9v-.5c0,-.7,.2,-1.2,.5,-1.5c.3,-.3,.7,-.5,1.3,-.5c.4,0,.7,0,.9,.1v.8c-.3,-.1,-.5,-.1,-.8,-.1c-.7,0,-1.1,.4,-1.1,1.2v.5h1.9V44h-1.8v5.1h-.9Z" class="g1_1" />
<path d="M285.1,43.2h.9v5.9h-.9V43.2Zm0,-2.3h1v1h-1v-1Z" class="g1_1" />
<path d="M292.4,45.8c0,-1,-.7,-2,-1.9,-2c-1,0,-1.8,.9,-1.9,2Zm-4.7,.4v0c0,-1.8,1.2,-3.1,2.9,-3.1c1.7,0,2.7,1.4,2.7,3.1c0,.1,0,.2,0,.3h-4.7c.1,1.3,1,2,2.1,2c.8,0,1.4,-.3,1.9,-.8l.5,.5c-.6,.6,-1.3,1.1,-2.4,1.1c-1.7,0,-3,-1.3,-3,-3.1Z" class="g1_1" />
<path d="M295.2,47.6V44h-.8v-.8h.8V41.4h.9v1.8H298V44h-1.9v3.5c0,.7,.4,.9,1,.9c.3,0,.5,0,.9,-.2V49c-.4,.2,-.7,.2,-1.1,.2c-1,0,-1.7,-.4,-1.7,-1.6Z" class="g1_1" />
<path d="M299,48.4l.5,-.6c.6,.4,1.4,.7,2.1,.7c.7,0,1.2,-.4,1.2,-.9v-.1c0,-.6,-.7,-.8,-1.5,-1c-.9,-.3,-2,-.6,-2,-1.7c0,-1,.9,-1.7,2.1,-1.7c.7,0,1.5,.2,2.1,.6l-.4,.7c-.6,-.3,-1.2,-.6,-1.8,-.6c-.7,0,-1.1,.4,-1.1,.9c0,.6,.7,.8,1.5,1c.9,.3,1.9,.7,1.9,1.8c0,1.1,-.9,1.8,-2.1,1.8c-.8,0,-1.8,-.4,-2.5,-.9Z" class="g1_1" />
<path d="M313.8,46.2v0c0,-1.4,-.9,-2.3,-2.1,-2.3c-1.1,0,-2.1,.9,-2.1,2.3c0,1.4,1,2.3,2.1,2.3c1.2,0,2.1,-.9,2.1,-2.3M309.6,48v1.1h-.9V40.7h.9v3.7c.5,-.7,1.2,-1.3,2.3,-1.3c1.4,0,2.8,1.1,2.8,3.1c0,1.9,-1.4,3.1,-2.8,3.1c-1.1,0,-1.8,-.6,-2.3,-1.3Z" class="g1_1" />
<path d="M316.4,43.2h.9v5.9h-.9V43.2Zm0,-2.3h1v1h-1v-1Z" class="g1_1" />
<path d="M319,46.2v0c0,-1.7,1.3,-3.1,3.1,-3.1c1.1,0,1.8,.4,2.4,1l-.6,.6c-.5,-.4,-1,-.9,-1.8,-.9c-1.3,0,-2.2,1.1,-2.2,2.4c0,1.3,1,2.3,2.2,2.3c.8,0,1.4,-.4,1.8,-.9l.6,.5c-.6,.7,-1.3,1.2,-2.4,1.2c-1.8,0,-3.1,-1.4,-3.1,-3.1Z" class="g1_1" />
<path d="M330.4,43.2h.9l-2.5,6.1c-.5,1.3,-1.1,1.7,-2,1.7c-.5,0,-.8,-.1,-1.2,-.3l.3,-.7c.2,.2,.5,.2,.9,.2c.5,0,.8,-.2,1.2,-1.1l-2.7,-5.9h1l2.1,5Z" class="g1_1" />
<path d="M332,46.2v0c0,-1.7,1.3,-3.1,3,-3.1c1.2,0,1.9,.4,2.4,1l-.6,.6c-.4,-.4,-1,-.9,-1.8,-.9c-1.2,0,-2.1,1.1,-2.1,2.4c0,1.3,.9,2.3,2.2,2.3c.7,0,1.3,-.4,1.8,-.9l.6,.5c-.6,.7,-1.3,1.2,-2.5,1.2c-1.7,0,-3,-1.4,-3,-3.1Z" class="g1_1" />
<path d="M339,40.7h.9v8.4H339V40.7Z" class="g1_1" />
<path d="M346.3,45.8c-.1,-1,-.7,-2,-1.9,-2c-1,0,-1.8,.9,-1.9,2Zm-4.7,.4v0c0,-1.8,1.2,-3.1,2.8,-3.1c1.8,0,2.8,1.4,2.8,3.1c0,.1,0,.2,0,.3h-4.7c.1,1.3,1,2,2.1,2c.8,0,1.4,-.3,1.9,-.8l.5,.5c-.6,.6,-1.3,1.1,-2.4,1.1c-1.7,0,-3,-1.3,-3,-3.1Z" class="g1_1" />
<path d="M356.2,47v-.6c-.5,-.1,-1.1,-.3,-1.8,-.3c-1.1,0,-1.7,.5,-1.7,1.3c0,.7,.7,1.2,1.5,1.2c1.1,0,2,-.7,2,-1.6m-4.4,.4v0c0,-1.3,1,-1.9,2.5,-1.9c.8,0,1.3,.1,1.8,.2v-.2c0,-1.1,-.6,-1.6,-1.7,-1.6c-.7,0,-1.3,.2,-1.8,.4l-.3,-.7c.7,-.3,1.3,-.5,2.2,-.5c.8,0,1.4,.2,1.9,.7c.4,.4,.6,.9,.6,1.7v3.6h-.9v-.9c-.4,.6,-1.1,1.1,-2.1,1.1c-1.1,0,-2.2,-.7,-2.2,-1.9Z" class="g1_1" />
<path d="M359,40.7h.8v8.4H359V40.7Z" class="g1_1" />
<path d="M361.4,43.2h.9l1.6,4.8l1.6,-4.8h.7l1.7,4.8l1.5,-4.8h.9l-2.1,6h-.7l-1.6,-4.7l-1.6,4.7h-.8Z" class="g1_1" />
<path d="M375.5,47v-.6c-.4,-.1,-1,-.3,-1.7,-.3c-1.2,0,-1.8,.5,-1.8,1.3c0,.7,.7,1.2,1.5,1.2c1.1,0,2,-.7,2,-1.6m-4.4,.4v0c0,-1.3,1.1,-1.9,2.6,-1.9c.7,0,1.3,.1,1.8,.2v-.2c0,-1.1,-.7,-1.6,-1.8,-1.6c-.7,0,-1.2,.2,-1.8,.4l-.2,-.7c.6,-.3,1.3,-.5,2.1,-.5c.9,0,1.5,.2,1.9,.7c.4,.4,.7,.9,.7,1.7v3.6h-.9v-.9c-.4,.6,-1.1,1.1,-2.1,1.1c-1.2,0,-2.3,-.7,-2.3,-1.9Z" class="g1_1" />
<path d="M382.5,43.2h.9l-2.5,6.1c-.5,1.3,-1.1,1.7,-2,1.7c-.5,0,-.8,-.1,-1.2,-.3L378,50c.3,.2,.5,.2,.9,.2c.5,0,.9,-.2,1.2,-1.1l-2.7,-5.9h1l2.2,5Z" class="g1_1" />
<path d="M384.1,48.4l.4,-.6c.7,.4,1.4,.7,2.1,.7c.7,0,1.2,-.4,1.2,-.9v-.1c0,-.6,-.7,-.8,-1.5,-1c-.9,-.3,-1.9,-.6,-1.9,-1.7c0,-1,.8,-1.7,2,-1.7c.7,0,1.5,.2,2.1,.6l-.4,.7c-.5,-.3,-1.1,-.6,-1.7,-.6c-.7,0,-1.2,.4,-1.2,.9c0,.6,.8,.8,1.6,1c.9,.3,1.9,.7,1.9,1.8c0,1.1,-1,1.8,-2.2,1.8c-.8,0,-1.7,-.4,-2.4,-.9Z" class="g1_1" />
<path d="M393.3,43.2h.9l1.6,4.8l1.6,-4.8h.7l1.6,4.8l1.6,-4.8h.9l-2.1,6h-.8l-1.6,-4.7l-1.6,4.7h-.8Z" class="g1_1" />
<path d="M408.3,46.2v0c0,-1.3,-.9,-2.4,-2.2,-2.4c-1.3,0,-2.2,1.1,-2.2,2.4c0,1.3,1,2.3,2.2,2.3c1.3,0,2.2,-1,2.2,-2.3m-5.3,0v0c0,-1.7,1.3,-3.1,3.1,-3.1c1.8,0,3.1,1.4,3.1,3.1c0,1.7,-1.3,3.1,-3.1,3.1c-1.8,0,-3.1,-1.4,-3.1,-3.1Z" class="g1_1" />
<path d="M410.8,43.2h.9v1.5c.4,-.9,1.3,-1.7,2.4,-1.6V44c-1.3,0,-2.4,1,-2.4,2.8v2.3h-.9Z" class="g1_1" />
<path d="M415.5,40.7h.9v5.8l3.2,-3.3h1.1l-2.5,2.5l2.6,3.4h-1.1l-2.1,-2.7l-1.2,1.2v1.5h-.9Z" class="g1_1" />
<path d="M421.5,48.4l.5,-.6c.6,.4,1.3,.7,2,.7c.7,0,1.3,-.4,1.3,-.9v-.1c0,-.6,-.7,-.8,-1.5,-1c-.9,-.3,-2,-.6,-2,-1.7c0,-1,.9,-1.7,2,-1.7c.8,0,1.6,.2,2.2,.6l-.4,.7c-.6,-.3,-1.2,-.6,-1.8,-.6c-.7,0,-1.1,.4,-1.1,.9c0,.6,.7,.8,1.5,1c.9,.3,1.9,.7,1.9,1.8c0,1.1,-.9,1.8,-2.1,1.8c-.9,0,-1.8,-.4,-2.5,-.9Z" class="g1_1" />
<path d="M427.6,47.9h1.1v1.2h-1.1V47.9Z" class="g1_1" />

</svg>
